<?xml version="1.0" encoding="UTF-8"?>
<svg id="Layer_1" data-name="Layer 1" xmlns="http://www.w3.org/2000/svg" viewBox="0 0 159.15 25.99">
  <path d="M24.67,0v25.61h-6.99V8.32s-2.79,17.29-2.79,17.29h-4.96l-2.93-16.9v16.9H0V0h10.35c.31,1.54.62,3.35.95,5.44l1.13,6.51L14.27,0h10.4Z"/>
  <path d="M34.51,12.75h-7.2v-1.41c0-1.62.22-2.88.67-3.76.45-.88,1.35-1.66,2.71-2.33s3.11-1.01,5.28-1.01c2.6,0,4.55.38,5.87,1.15,1.32.76,2.11,1.7,2.37,2.82.27,1.11.4,3.4.4,6.87v10.54h-7.46v-1.87c-.47.75-1.07,1.31-1.81,1.69s-1.62.56-2.65.56c-1.34,0-2.57-.31-3.69-.94-1.12-.63-1.68-2-1.68-4.12v-1.72c0-1.57.3-2.64.89-3.21.6-.57,2.07-1.23,4.43-1.99,2.52-.82,3.87-1.38,4.04-1.66.18-.29.27-.86.27-1.74,0-1.1-.1-1.81-.29-2.14s-.52-.5-.98-.5c-.52,0-.84.14-.97.42-.13.28-.19,1-.19,2.18v2.2ZM36.94,15.63c-1.23.75-1.94,1.38-2.14,1.88s-.29,1.23-.29,2.18c0,1.09.09,1.79.26,2.1s.51.47,1.02.47.79-.12.94-.37c.15-.25.22-.9.22-1.95v-4.32Z"/>
  <path d="M63.13,4.62l-3.59,20.99h-10.03l-3.86-20.99h6.85l2.16,15.33c.17-1.13.46-3.87.87-8.24.22-2.44.47-4.8.74-7.09h6.85Z"/>
  <path d="M81.63,15.49h-9.93v4.54c0,.95.08,1.56.25,1.83.16.27.48.41.95.41.58,0,.97-.18,1.17-.55.2-.36.29-1.07.29-2.11v-2.77h7.27v1.55c0,1.3-.1,2.29-.29,2.99-.2.7-.65,1.44-1.38,2.23s-1.64,1.38-2.75,1.78c-1.11.4-2.5.59-4.17.59s-3.05-.2-4.29-.59c-1.24-.39-2.21-.92-2.9-1.61-.69-.68-1.17-1.43-1.43-2.25-.27-.82-.4-2.01-.4-3.57v-6.12c0-1.83.3-3.28.89-4.34.59-1.06,1.57-1.87,2.92-2.44s2.91-.85,4.67-.85c2.15,0,3.93.34,5.33,1.02s2.38,1.58,2.94,2.71c.56,1.12.84,2.7.84,4.74v2.78ZM73.93,12.07v-1.54c0-1.09-.07-1.79-.21-2.1-.14-.32-.42-.47-.85-.47-.53,0-.86.13-.99.4-.13.27-.19.99-.19,2.17v1.54h2.24Z"/>
  <path d="M91.94,4.62l-.13,1.93c.56-.77,1.24-1.35,2.04-1.74.8-.38,1.73-.58,2.78-.58,1.32,0,2.39.26,3.23.78.83.52,1.37,1.17,1.61,1.95.24.79.36,2.1.36,3.93v14.71h-7.67v-14.54c0-1.44-.06-2.33-.17-2.64-.11-.32-.43-.47-.95-.47-.54,0-.89.18-1.03.55-.14.36-.21,1.34-.21,2.92v14.19h-7.67V4.62h7.81Z"/>
  <path d="M116.42,4.62v4.65l-5.66,12.13h5.66v4.21h-13.09v-4.4l5.78-12.39h-5.19v-4.21h12.5Z"/>
  <path d="M135.51,15.49h-9.93v4.54c0,.95.08,1.56.25,1.83.17.27.48.41.95.41.58,0,.97-.18,1.17-.55.2-.36.29-1.07.29-2.11v-2.77h7.27v1.55c0,1.3-.1,2.29-.29,2.99s-.66,1.44-1.38,2.23-1.64,1.38-2.74,1.78c-1.11.4-2.5.59-4.17.59s-3.05-.2-4.29-.59c-1.24-.39-2.21-.92-2.9-1.61-.69-.68-1.17-1.43-1.43-2.25-.27-.82-.4-2.01-.4-3.57v-6.12c0-1.83.3-3.28.89-4.34.59-1.06,1.57-1.87,2.92-2.44,1.35-.56,2.91-.85,4.67-.85,2.15,0,3.93.34,5.33,1.02,1.4.68,2.38,1.58,2.94,2.71s.85,2.7.85,4.74v2.78ZM127.81,12.07v-1.54c0-1.09-.07-1.79-.21-2.1-.14-.32-.42-.47-.86-.47-.53,0-.86.13-.99.4s-.19.99-.19,2.17v1.54h2.24Z"/>
  <path d="M145.91,0v3.34h-7.9V0h7.9ZM145.91,4.62v20.99h-7.9V4.62h7.9Z"/>
  <path d="M156.76,1.82v3.31h2.07v3.32h-2.07v11.23c0,1.38.08,2.15.26,2.31s.88.24,2.14.24v3.39h-3.1c-1.75,0-2.99-.06-3.74-.18s-1.41-.4-1.97-.84c-.57-.44-.92-.94-1.06-1.5-.14-.56-.21-1.89-.21-3.98v-10.66h-1.65v-3.32h1.65V1.82h7.69Z"/>
</svg>